<svg xmlns="http://www.w3.org/2000/svg" viewBox="0 0 820 335" role="img" aria-label="v2 Sprint Timeline Gantt Chart">
  <!-- Background -->
  <rect width="820" height="335" rx="12" fill="#161121"/>

  <!-- Title -->
  <text x="410" y="24" font-family="ui-monospace,monospace" font-size="11" font-weight="700" fill="#d4a574" text-anchor="middle" letter-spacing="0.5">SPRINT TIMELINE — v2.0 ROADMAP (~9 WEEKS)</text>

  <!-- Week grid lines  (timeline area x=130..720, 9 columns of ~65.5px) -->
  <!-- separators: 130, 196, 261, 327, 392, 458, 523, 589, 654, 720 -->
  <g stroke="#201c3a" stroke-width="1" fill="none">
    <line x1="130" y1="42" x2="130" y2="318"/>
    <line x1="196" y1="42" x2="196" y2="318"/>
    <line x1="261" y1="42" x2="261" y2="318"/>
    <line x1="327" y1="42" x2="327" y2="318"/>
    <line x1="392" y1="42" x2="392" y2="318"/>
    <line x1="458" y1="42" x2="458" y2="318"/>
    <line x1="523" y1="42" x2="523" y2="318"/>
    <line x1="589" y1="42" x2="589" y2="318"/>
    <line x1="654" y1="42" x2="654" y2="318"/>
    <line x1="720" y1="42" x2="720" y2="318"/>
  </g>

  <!-- Week labels (centers: 163, 228, 294, 360, 425, 490, 556, 622, 687) -->
  <g font-family="ui-monospace,monospace" font-size="10" fill="#3a3068" text-anchor="middle">
    <text x="163" y="56">W1</text>
    <text x="228" y="56">W2</text>
    <text x="294" y="56">W3</text>
    <text x="360" y="56">W4</text>
    <text x="425" y="56">W5</text>
    <text x="490" y="56">W6</text>
    <text x="556" y="56">W7</text>
    <text x="622" y="56">W8</text>
    <text x="687" y="56">W9</text>
  </g>

  <!-- ── S0 · Foundation (W1 · blue) ── -->
  <rect x="3" y="63" width="125" height="30" rx="4" fill="#0d1523"/>
  <text x="66" y="82" font-family="ui-monospace,monospace" font-size="9.5" font-weight="600" fill="#60a5fa" text-anchor="middle">S0 · Foundation</text>
  <rect x="130" y="63" width="66" height="30" rx="5" fill="#182c44" stroke="#60a5fa" stroke-width="1.5"/>
  <text x="163" y="82" font-family="ui-monospace,monospace" font-size="9" fill="#93c5fd" text-anchor="middle">1 week</text>
  <line x1="196" y1="78" x2="722" y2="78" stroke="#60a5fa" stroke-width="0.5" stroke-dasharray="2,5" opacity="0.2"/>
  <rect x="723" y="67" width="70" height="18" rx="3" fill="#182c44" stroke="#60a5fa" stroke-width="1"/>
  <text x="758" y="79" font-family="ui-monospace,monospace" font-size="9" fill="#60a5fa" text-anchor="middle">v2.0-alpha</text>

  <!-- ── S1 · Kill Tech Debt (W2 · coral) ── -->
  <rect x="3" y="100" width="125" height="30" rx="4" fill="#0d1523"/>
  <text x="66" y="119" font-family="ui-monospace,monospace" font-size="9.5" font-weight="600" fill="#f87171" text-anchor="middle">S1 · Kill Debt</text>
  <rect x="196" y="100" width="65" height="30" rx="5" fill="#2c1616" stroke="#f87171" stroke-width="1.5"/>
  <text x="228" y="119" font-family="ui-monospace,monospace" font-size="9" fill="#fca5a5" text-anchor="middle">1 week</text>
  <line x1="261" y1="115" x2="722" y2="115" stroke="#f87171" stroke-width="0.5" stroke-dasharray="2,5" opacity="0.2"/>
  <rect x="723" y="104" width="70" height="18" rx="3" fill="#2c1616" stroke="#f87171" stroke-width="1"/>
  <text x="758" y="116" font-family="ui-monospace,monospace" font-size="9" fill="#f87171" text-anchor="middle">v2.0-beta</text>

  <!-- ── S2 · Modern UI (W3–W4 · purple) ── -->
  <rect x="3" y="137" width="125" height="30" rx="4" fill="#0d1523"/>
  <text x="66" y="156" font-family="ui-monospace,monospace" font-size="9.5" font-weight="600" fill="#a78bfa" text-anchor="middle">S2 · Modern UI</text>
  <rect x="261" y="137" width="131" height="30" rx="5" fill="#1c1438" stroke="#a78bfa" stroke-width="1.5"/>
  <text x="327" y="156" font-family="ui-monospace,monospace" font-size="9" fill="#c4b5fd" text-anchor="middle">2 weeks</text>
  <line x1="392" y1="152" x2="722" y2="152" stroke="#a78bfa" stroke-width="0.5" stroke-dasharray="2,5" opacity="0.2"/>
  <rect x="723" y="141" width="70" height="18" rx="3" fill="#1c1438" stroke="#a78bfa" stroke-width="1"/>
  <text x="758" y="153" font-family="ui-monospace,monospace" font-size="9" fill="#a78bfa" text-anchor="middle">v2.0-rc</text>

  <!-- ── S3 · New Features (W5–W6 · green) ── -->
  <rect x="3" y="174" width="125" height="30" rx="4" fill="#0d1523"/>
  <text x="66" y="193" font-family="ui-monospace,monospace" font-size="9.5" font-weight="600" fill="#4ade80" text-anchor="middle">S3 · New Features</text>
  <rect x="392" y="174" width="131" height="30" rx="5" fill="#0e2618" stroke="#4ade80" stroke-width="1.5"/>
  <text x="458" y="193" font-family="ui-monospace,monospace" font-size="9" fill="#86efac" text-anchor="middle">2 weeks</text>
  <line x1="523" y1="189" x2="722" y2="189" stroke="#4ade80" stroke-width="0.5" stroke-dasharray="2,5" opacity="0.2"/>
  <rect x="723" y="178" width="70" height="18" rx="3" fill="#0e2618" stroke="#4ade80" stroke-width="1"/>
  <text x="758" y="190" font-family="ui-monospace,monospace" font-size="9" fill="#4ade80" text-anchor="middle">v2.0.0</text>

  <!-- ── S4 · Security (W7 · amber) ── -->
  <rect x="3" y="211" width="125" height="30" rx="4" fill="#0d1523"/>
  <text x="66" y="230" font-family="ui-monospace,monospace" font-size="9.5" font-weight="600" fill="#fbbf24" text-anchor="middle">S4 · Security</text>
  <rect x="523" y="211" width="66" height="30" rx="5" fill="#271c04" stroke="#fbbf24" stroke-width="1.5"/>
  <text x="556" y="230" font-family="ui-monospace,monospace" font-size="9" fill="#fde68a" text-anchor="middle">1 week</text>
  <line x1="589" y1="226" x2="722" y2="226" stroke="#fbbf24" stroke-width="0.5" stroke-dasharray="2,5" opacity="0.2"/>
  <rect x="723" y="215" width="70" height="18" rx="3" fill="#271c04" stroke="#fbbf24" stroke-width="1"/>
  <text x="758" y="227" font-family="ui-monospace,monospace" font-size="9" fill="#fbbf24" text-anchor="middle">v2.1.0</text>

  <!-- ── S5 · Event Day (W8 · pink) ── -->
  <rect x="3" y="248" width="125" height="30" rx="4" fill="#0d1523"/>
  <text x="66" y="267" font-family="ui-monospace,monospace" font-size="9.5" font-weight="600" fill="#e8a0b4" text-anchor="middle">S5 · Event Day</text>
  <rect x="589" y="248" width="65" height="30" rx="5" fill="#24101a" stroke="#e8a0b4" stroke-width="1.5"/>
  <text x="622" y="267" font-family="ui-monospace,monospace" font-size="9" fill="#f9a8d4" text-anchor="middle">1 week</text>
  <line x1="654" y1="263" x2="722" y2="263" stroke="#e8a0b4" stroke-width="0.5" stroke-dasharray="2,5" opacity="0.2"/>
  <rect x="723" y="252" width="70" height="18" rx="3" fill="#24101a" stroke="#e8a0b4" stroke-width="1"/>
  <text x="758" y="264" font-family="ui-monospace,monospace" font-size="9" fill="#e8a0b4" text-anchor="middle">v2.2.0</text>

  <!-- ── S6 · CI/CD Quality (W9 · teal) ── -->
  <rect x="3" y="285" width="125" height="30" rx="4" fill="#0d1523"/>
  <text x="66" y="304" font-family="ui-monospace,monospace" font-size="9.5" font-weight="600" fill="#6ee7b7" text-anchor="middle">S6 · CI/CD Quality</text>
  <rect x="654" y="285" width="66" height="30" rx="5" fill="#081e14" stroke="#6ee7b7" stroke-width="1.5"/>
  <text x="687" y="304" font-family="ui-monospace,monospace" font-size="9" fill="#a7f3d0" text-anchor="middle">1 week</text>
  <line x1="720" y1="300" x2="722" y2="300" stroke="#6ee7b7" stroke-width="0.5" stroke-dasharray="2,5" opacity="0.2"/>
  <rect x="723" y="289" width="70" height="18" rx="3" fill="#081e14" stroke="#6ee7b7" stroke-width="1"/>
  <text x="758" y="301" font-family="ui-monospace,monospace" font-size="9" fill="#6ee7b7" text-anchor="middle">v2.3.0</text>

  <!-- Bottom border -->
  <line x1="3" y1="322" x2="817" y2="322" stroke="#201c3a" stroke-width="1"/>

  <!-- Total duration label -->
  <text x="425" y="333" font-family="ui-monospace,monospace" font-size="9" fill="#3a3068" text-anchor="middle">Total: ~9 weeks</text>
</svg>
