<svg xmlns="http://www.w3.org/2000/svg" viewBox="0 0 860 130" role="img" aria-label="Wedding Manager Theme Swatches">
  <rect width="860" height="130" rx="14" fill="#0d0b18"/>
  <text x="430" y="22" font-family="ui-monospace,monospace" font-size="11" font-weight="700" fill="#d4a574" text-anchor="middle" letter-spacing="1">5 THEMES — GLASSMORPHISM UI</text>
  <!-- Theme 1: Default Purple -->
  <rect x="20" y="34" width="155" height="82" rx="9" fill="#1a1733" stroke="#7b6cbf" stroke-width="1.5"/>
  <circle cx="53" cy="71" r="22" fill="#7b6cbf" opacity="0.3" stroke="#7b6cbf" stroke-width="1.5"/>
  <circle cx="53" cy="71" r="10" fill="#d4a574"/>
  <text x="84" y="63" font-family="ui-monospace,monospace" font-size="9" font-weight="700" fill="#a89cf7">Default Purple</text>
  <text x="84" y="78" font-family="ui-monospace,monospace" font-size="8" fill="#534e7e">accent #d4a574</text>
  <text x="84" y="92" font-family="ui-monospace,monospace" font-size="8" fill="#534e7e">bg #1a1544</text>
  <!-- Theme 2: Rose Gold -->
  <rect x="189" y="34" width="155" height="82" rx="9" fill="#2a1520" stroke="#e8a0b4" stroke-width="1.5"/>
  <circle cx="222" cy="71" r="22" fill="#e8a0b4" opacity="0.25" stroke="#e8a0b4" stroke-width="1.5"/>
  <circle cx="222" cy="71" r="10" fill="#e8a0b4"/>
  <text x="253" y="63" font-family="ui-monospace,monospace" font-size="9" font-weight="700" fill="#e8a0b4">Rose Gold</text>
  <text x="253" y="78" font-family="ui-monospace,monospace" font-size="8" fill="#534e7e">accent #e8a0b4</text>
  <text x="253" y="92" font-family="ui-monospace,monospace" font-size="8" fill="#534e7e">bg #2a1520</text>
  <!-- Theme 3: Classic Gold -->
  <rect x="358" y="34" width="155" height="82" rx="9" fill="#1c1604" stroke="#d4a030" stroke-width="1.5"/>
  <circle cx="391" cy="71" r="22" fill="#d4a030" opacity="0.25" stroke="#d4a030" stroke-width="1.5"/>
  <circle cx="391" cy="71" r="10" fill="#d4a030"/>
  <text x="422" y="63" font-family="ui-monospace,monospace" font-size="9" font-weight="700" fill="#d4a030">Classic Gold</text>
  <text x="422" y="78" font-family="ui-monospace,monospace" font-size="8" fill="#534e7e">accent #d4a030</text>
  <text x="422" y="92" font-family="ui-monospace,monospace" font-size="8" fill="#534e7e">bg #1c1604</text>
  <!-- Theme 4: Emerald -->
  <rect x="527" y="34" width="155" height="82" rx="9" fill="#0a1f12" stroke="#6ee7b7" stroke-width="1.5"/>
  <circle cx="560" cy="71" r="22" fill="#6ee7b7" opacity="0.2" stroke="#6ee7b7" stroke-width="1.5"/>
  <circle cx="560" cy="71" r="10" fill="#6ee7b7"/>
  <text x="591" y="63" font-family="ui-monospace,monospace" font-size="9" font-weight="700" fill="#6ee7b7">Emerald</text>
  <text x="591" y="78" font-family="ui-monospace,monospace" font-size="8" fill="#534e7e">accent #6ee7b7</text>
  <text x="591" y="92" font-family="ui-monospace,monospace" font-size="8" fill="#534e7e">bg #0a1f12</text>
  <!-- Theme 5: Royal Blue -->
  <rect x="696" y="34" width="154" height="82" rx="9" fill="#0a1228" stroke="#60a5fa" stroke-width="1.5"/>
  <circle cx="729" cy="71" r="22" fill="#60a5fa" opacity="0.2" stroke="#60a5fa" stroke-width="1.5"/>
  <circle cx="729" cy="71" r="10" fill="#60a5fa"/>
  <text x="760" y="63" font-family="ui-monospace,monospace" font-size="9" font-weight="700" fill="#60a5fa">Royal Blue</text>
  <text x="760" y="78" font-family="ui-monospace,monospace" font-size="8" fill="#534e7e">accent #60a5fa</text>
  <text x="760" y="92" font-family="ui-monospace,monospace" font-size="8" fill="#534e7e">bg #0a1228</text>
</svg>
